<svg width="120" height="120" viewBox="0 0 120 120" fill="none" xmlns="http://www.w3.org/2000/svg">
<g clip-path="url(#clip0_8763_441596)">
<path d="M29.2609 21.1899L41.2209 24.3999L34.2929 47.5789L95.0609 47.5799L93.4009 100.33H29.4009L30.6799 59.6679L18.4209 100.69L6.46094 97.4799L29.2609 21.1899ZM70.5309 59.5699H54.8909C52.8632 59.5894 51.206 61.1939 51.1209 63.2199C51.0827 64.1766 51.437 65.1073 52.1016 65.7965C52.7662 66.4857 53.6835 66.8734 54.6409 66.87H70.2709C72.3026 66.8557 73.9657 65.2498 74.0509 63.2199C74.0891 62.2633 73.7349 61.3325 73.0703 60.6434C72.4056 59.9542 71.4883 59.5664 70.5309 59.5699Z" fill="#C2E2FF"/>
<path d="M74.2694 89.9199H49.1094L49.5994 75.9099H74.7494L74.2694 89.9199Z" fill="white"/>
<path d="M88.2605 61.9101C89.3848 61.9003 90.4591 62.3737 91.2105 63.2101C91.4817 63.5026 91.6984 63.8413 91.8505 64.2101C91.971 64.4602 92.0552 64.7262 92.1005 65.0001L93.9585 71.1125C95.0856 69.8745 96.6864 69.078 98.4703 69.0054L98.7005 69.0001C100.332 68.982 101.9 69.6361 103.035 70.8089C104.17 71.9816 104.772 73.5697 104.701 75.2001L104.221 88.8001H91.8105L92.2805 75.2401C92.3187 74.1174 92.6419 73.0694 93.1792 72.1648L86.8505 69.9301L86.2205 69.7101C85.8467 69.5364 85.5078 69.2957 85.2205 69.0001C84.3926 68.2281 83.9464 67.1308 84.0005 66.0001C84.0867 63.7117 85.9705 61.903 88.2605 61.9101Z" fill="#28BF9A"/>
<path d="M119.46 99.68V100.68H0.0800781V99.68H119.46ZM64.7601 84.21V85.21H58.9801V84.21H64.7601ZM102.385 80.2093L105.877 81.783L105.466 82.6947L101.974 81.121L102.385 80.2093ZM91.0065 79.2886L94.2976 81.228L93.7899 82.0895L90.4988 80.1501L91.0065 79.2886ZM67.2201 80.62V81.62H56.7701V80.62H67.2201ZM97.6009 73.2422L99.4225 76.6L98.5435 77.0768L96.7219 73.7191L97.6009 73.2422ZM103.346 69.397L104.289 69.7298L102.985 73.4263L102.042 73.0935L103.346 69.397ZM83.3022 64.0692L86.9615 65.2335L86.6583 66.1864L82.999 65.0221L83.3022 64.0692ZM34.6708 47.5984L35.6199 47.9134L31.4179 60.5743L30.4688 60.2593L34.6708 47.5984ZM75.4101 21.5C78.0186 26.2272 77.513 32.062 74.1301 36.27C73.1716 37.5625 71.7369 38.4126 70.1514 38.637L69.8701 38.67C69.7301 38.99 69.5701 39.31 69.4101 39.67C68.9365 40.8009 67.9773 41.6573 66.8001 42C65.6624 42.1782 64.5167 41.7314 63.8001 40.83C63.4098 41.6283 62.8969 42.3605 62.2801 43C61.929 43.4026 61.4914 43.7205 61.0001 43.93C60.7408 44.0256 60.4663 44.073 60.1901 44.0701C59.1238 44.0123 58.1513 43.4423 57.5801 42.54C56.9971 41.5028 56.6553 40.3475 56.5801 39.16L57.5801 39.04C57.6219 40.0881 57.8987 41.1133 58.3901 42.04C58.834 42.8259 59.7379 43.2312 60.6201 43.04C60.97 42.8835 61.2808 42.6512 61.5301 42.36C62.1903 41.6624 62.7158 40.8487 63.0801 39.96C62.9104 39.6806 62.76 39.3899 62.6301 39.09C61.974 37.6098 61.6335 36.0091 61.6301 34.39C61.6133 33.9902 61.7451 33.5984 62.0001 33.29C62.1961 33.0661 62.4731 32.9293 62.7701 32.91C63.1337 32.8857 63.4924 33.0041 63.7701 33.24C64.1348 33.5886 64.3798 34.0436 64.4701 34.54C64.9001 36.2709 64.8096 38.0903 64.2101 39.77C64.6982 40.6063 65.6255 41.0856 66.5901 41C67.3001 40.86 67.9301 40.24 68.5301 39.12C68.6401 38.91 68.7401 38.7 68.8401 38.48L68.5601 38.37C66.9801 37.69 66.0501 35.79 66.0901 33.3C66.112 31.5915 66.4301 29.8998 67.0301 28.3C67.1765 27.7506 67.5366 27.2825 68.0301 27C68.4005 26.8251 68.8297 26.8251 69.2001 27C69.9316 27.4395 70.4463 28.1645 70.6201 29C71.3659 31.8574 71.2441 34.8721 70.2701 37.66C71.5028 37.3766 72.5967 36.6686 73.3601 35.66C76.4562 31.7549 76.9206 26.3782 74.5401 22L75.4101 21.5ZM62.9633 33.9083L62.8801 33.91C62.7613 34.0239 62.7022 34.1864 62.7201 34.35C62.7101 35.8002 62.9994 37.2368 63.5701 38.57C63.8701 37.3279 63.8701 36.0321 63.5701 34.79C63.5243 34.4949 63.3921 34.22 63.1901 34C63.1251 33.9467 63.0458 33.915 62.9633 33.9083ZM68.6101 27.87V27.91H68.4501C68.2075 28.092 68.0374 28.3543 67.9701 28.65C67.4043 30.1428 67.1064 31.7237 67.0901 33.32C67.0901 34.1 67.1801 36.7 68.9501 37.46L69.2301 37.56C70.2267 34.8898 70.3734 31.9768 69.6501 29.22C69.5389 28.6932 69.2314 28.2284 68.7901 27.92C68.735 27.889 68.6732 27.8718 68.6101 27.87Z" fill="#192C55"/>
<path d="M106.75 100.04H88.4902L89.0002 85.4099H107.26L106.75 100.04Z" fill="#116DFF"/>
</g>
<defs>
<clipPath id="clip0_8763_441596">
<rect width="120" height="120" fill="white"/>
</clipPath>
</defs>
</svg>
