<?xml version="1.0" encoding="UTF-8"?>
<svg width="120px" height="120px" viewBox="0 0 120 120" version="1.1" xmlns="http://www.w3.org/2000/svg" xmlns:xlink="http://www.w3.org/1999/xlink">
    <title>Promotional_Promote_Marketing Home_Coupons</title>
    <g id="Page-1" stroke="none" stroke-width="1" fill="none" fill-rule="evenodd">
        <g id="Promotional_Promote_Marketing-Home_Coupons" fill-rule="nonzero">
            <rect id="Rectangle" x="0" y="0" width="120" height="120"></rect>
            <polygon id="Path" fill="#C2E2FF" points="92.07 98.22 99 108 78.85 108 79.41 92 39.41 92 38.85 108 21 108 27.93 98.22 8.31 81.53 27.55 76.8 20 53 47.43 60.19 60 63.48 71.08 60.58 75.51 59.42 79.24 58.44 100 53 92.45 76.8 111.69 81.53"></polygon>
            <path d="M76.26,38 L75.58,57.31 L75.51,59.42 L75.28,66 L57.88,80.9 L57.79,80.97 L57.85,81.06 L64.85,91.97 L46.08,91.97 L47.08,63.1 C47.1167185,62.1126504 47.2303966,61.129669 47.42,60.16 C48.621567,54.1143579 52.6329553,49.003552 58.22,46.4 L76.26,38 Z" id="Path" fill="#B27149"></path>
            <path d="M76.26,38 L75.58,57.31 L75.51,59.42 L75.28,66 L57.88,80.9 L57.79,80.97 L57.85,81.06 L64.85,91.97 L46.08,91.97 L47.08,63.1 C47.1167185,62.1126504 47.2303966,61.129669 47.42,60.16 C48.621567,54.1143579 52.6329553,49.003552 58.22,46.4 L76.26,38 Z" id="Path" fill="#FFB6A8"></path>
            <path d="M61.48,18.43 L53.28,19.43 C53.5101426,20.8960846 53.1290667,22.3924111 52.2256946,23.5698186 C51.3223225,24.7472262 49.9756801,25.5027167 48.5,25.66 C45.3866994,26.0352106 42.526775,23.901267 42,20.81 L33.79,21.81 L42.27,78.37 L70,75 L61.48,18.43 Z" id="Path" fill="#116DFF"></path>
            <polygon id="Path" fill="#FFFFFF" points="83.03 21.87 80.45 71 50.45 71 53.03 21.87"></polygon>
            <path d="M83.55,12 L82.55,30 L52.55,30 L53.5,12 L61.5,12 C61.3770302,13.8269532 62.0232422,15.6221547 63.2824044,16.9515869 C64.5415667,18.2810192 66.299066,19.0236728 68.13,19 C72.0421468,18.9602325 75.2589581,15.9049165 75.5,12 L83.55,12 Z" id="Path" fill="#FFD527"></path>
            <rect id="Rectangle" fill="#192C55" transform="translate(65.069980, 50.610952) rotate(-47.570000) translate(-65.069980, -50.610952) " x="55.15998" y="50.1109523" width="19.82" height="1"></rect>
            <path d="M69.73,58.5300392 L69.73,58.5300392 C69.0049931,58.5339919 68.3117647,58.2327461 67.82,57.7 C67.3165451,57.1609822 67.0625664,56.4353288 67.12,55.7 C67.2386492,54.1912844 68.4867742,53.0211672 70,53 C70.7310919,53.0004382 71.4287487,53.3063265 71.9243972,53.8437538 C72.4200457,54.3811811 72.6685991,55.1012602 72.61,55.83 C72.4959296,57.340912 71.2451226,58.5135436 69.73,58.5300392 L69.73,58.5300392 Z M70,54 C69.0054571,54.0133221 68.1876083,54.7876683 68.12,55.78 L68.12,55.78 C68.0854378,56.2237208 68.229425,56.6628816 68.52,57 C68.8278272,57.3290267 69.2594447,57.5140056 69.71,57.51 C70.7161131,57.512333 71.5515236,56.7337828 71.62,55.73 C71.6480235,55.2740355 71.4891567,54.8263199 71.18,54.49 C70.8690815,54.1738632 70.4434009,53.9970976 70,54 L70,54 Z" id="Shape" fill="#192C55"></path>
            <path d="M60.18,48.21 L60.18,48.21 C59.4509756,48.2061742 58.7559854,47.9010501 58.2597678,47.3669533 C57.7635502,46.8328565 57.5102831,46.1173373 57.56,45.39 L57.56,45.39 C57.6641735,43.871203 58.9177328,42.6872859 60.44,42.67 L60.44,42.67 C61.1672801,42.6765703 61.8596328,42.98289 62.3536596,43.5166661 C62.8476864,44.0504422 63.099619,44.7643848 63.05,45.49 C62.9461543,47.0050154 61.6984043,48.1875519 60.18,48.21 Z M60.42,43.6699719 C59.4254571,43.6833221 58.6076083,44.4576683 58.54,45.45 L58.54,45.45 C58.5036454,45.9043492 58.6591896,46.3531649 58.9689026,46.6875789 C59.2786155,47.0219928 59.714201,47.2114521 60.17,47.2100083 C61.1742101,47.2120047 62.0065781,46.4322074 62.07,45.43 C62.1028359,44.9733711 61.9433116,44.5238024 61.63,44.19 C61.3246738,43.8562432 60.8923389,43.6673238 60.44,43.6699719 L60.42,43.6699719 Z" id="Shape" fill="#192C55"></path>
            <rect id="Rectangle" fill="#192C55" x="55.73" y="29" width="4.9" height="1"></rect>
            <rect id="Rectangle" fill="#192C55" x="64.63" y="29" width="6" height="1"></rect>
            <rect id="Rectangle" fill="#192C55" x="74.63" y="29" width="5" height="1"></rect>
            <path d="M79.44,58.6 L77.44,64.36 L77.44,64.36 L71.79,80.94 L73.61,92 L59.41,92 C57.7997926,88.604433 57.255912,84.800755 57.85,81.09 L57.85,80.93 C58.880588,74.7714186 62.7476042,69.4561233 68.29,66.58 L68.29,66.58 L68.29,66.58 L68.29,66.58 L71.04,60.58 L71.1,60.45 C71.9114967,58.6842402 73.6047504,57.486759 75.54,57.31 C76.8616314,57.1858874 78.1783714,57.5924219 79.2,58.44 C79.2873119,58.4814547 79.3681526,58.5353485 79.44,58.6 Z" id="Path" fill="#B27149"></path>
            <path d="M79.44,58.6 L77.44,64.36 L77.44,64.36 L71.79,80.94 L73.61,92 L59.41,92 C57.7997926,88.604433 57.255912,84.800755 57.85,81.09 L57.85,80.93 C58.880588,74.7714186 62.7476042,69.4561233 68.29,66.58 L68.29,66.58 L68.29,66.58 L68.29,66.58 L71.04,60.58 L71.1,60.45 C71.9114967,58.6842402 73.6047504,57.486759 75.54,57.31 C76.8616314,57.1858874 78.1783714,57.5924219 79.2,58.44 C79.2873119,58.4814547 79.3681526,58.5353485 79.44,58.6 Z" id="Path" fill="#FFB6A8"></path>
            <path d="M58.33,81.22 L57.33,81.07 C58.3356676,74.6729398 62.3173843,69.1326761 68.06,66.14 L68.52,67.03 C63.064251,69.8752569 59.2827815,75.141111 58.33,81.22 Z" id="Path" fill="#192C55"></path>
            <rect id="Rectangle" fill="#192C55" transform="translate(95.803793, 43.413888) rotate(-26.570000) translate(-95.803793, -43.413888) " x="86.6737927" y="42.913888" width="18.26" height="1"></rect>
            <rect id="Rectangle" fill="#192C55" transform="translate(96.711480, 30.672553) rotate(-40.250000) translate(-96.711480, -30.672553) " x="84.8264797" y="30.1725527" width="23.77" height="1"></rect>
            <rect id="Rectangle" fill="#192C55" transform="translate(23.201499, 43.421554) rotate(-63.430000) translate(-23.201499, -43.421554) " x="22.701499" y="34.291554" width="1" height="18.26"></rect>
            <rect id="Rectangle" fill="#192C55" transform="translate(22.301696, 30.676567) rotate(-49.770000) translate(-22.301696, -30.676567) " x="21.8016958" y="18.7915669" width="1" height="23.77"></rect>
        </g>
    </g>
</svg>